<svg xmlns="http://www.w3.org/2000/svg" xmlns:xlink="http://www.w3.org/1999/xlink" width="500" zoomAndPan="magnify" viewBox="0 0 375 374.999991" height="500" preserveAspectRatio="xMidYMid meet" version="1.0"><path fill="#222831" d="M 277.960938 166.980469 C 295.699219 166.980469 312.023438 172.890625 325.214844 182.734375 C 323.917969 141.644531 292.15625 100.542969 229.484375 59.429688 L 238.785156 45 C 329.589844 101.417969 375 163.339844 375 230.75 C 375 261.703125 366.578125 285.964844 349.71875 303.488281 C 332.867188 321.046875 311.535156 329.800781 285.738281 329.800781 C 259.925781 329.800781 239.128906 322.757812 223.300781 308.652344 C 207.484375 294.5625 199.5625 277.519531 199.5625 257.578125 C 199.5625 257.355469 199.605469 257.191406 199.605469 256.949219 C 199.121094 253.414062 198.78125 249.839844 198.78125 246.144531 C 198.78125 202.4375 234.242188 166.980469 277.960938 166.980469 Z M 277.960938 166.980469 " fill-opacity="1" fill-rule="nonzero"/><path fill="#222831" d="M 21.953125 300.808594 C 20.929688 299.625 19.6875 298.496094 18.746094 297.257812 C 7.082031 283.460938 0 265.652344 0 246.148438 C 0 202.441406 35.457031 166.972656 79.171875 166.972656 C 99.199219 166.972656 117.425781 174.464844 131.378906 186.734375 C 131.378906 186.246094 131.457031 185.835938 131.457031 185.332031 C 131.457031 143.375 99.472656 101.390625 35.480469 59.421875 L 44.769531 45 C 135.589844 101.417969 180.996094 163.339844 180.996094 230.765625 C 180.996094 261.71875 172.574219 285.976562 155.707031 303.5 C 138.863281 321.054688 117.53125 329.824219 91.734375 329.824219 C 65.941406 329.824219 45.117188 322.769531 29.296875 308.65625 C 27.058594 306.6875 25.324219 304.472656 23.40625 302.363281 C 22.902344 301.859375 22.449219 301.335938 21.953125 300.808594 Z M 21.953125 300.808594 " fill-opacity="1" fill-rule="nonzero"/></svg>