<svg xmlns="http://www.w3.org/2000/svg" xmlns:xlink="http://www.w3.org/1999/xlink" width="500" zoomAndPan="magnify" viewBox="0 0 375 374.999991" height="500" preserveAspectRatio="xMidYMid meet" version="1.0"><path fill="#222831" d="M 97.039062 166.980469 C 79.300781 166.980469 62.976562 172.890625 49.785156 182.734375 C 51.082031 141.644531 82.84375 100.542969 145.515625 59.429688 L 136.214844 45 C 45.410156 101.417969 0 163.339844 0 230.75 C 0 261.703125 8.421875 285.964844 25.28125 303.488281 C 42.132812 321.046875 63.464844 329.800781 89.261719 329.800781 C 115.074219 329.800781 135.871094 322.757812 151.699219 308.652344 C 167.515625 294.5625 175.4375 277.519531 175.4375 257.578125 C 175.4375 257.355469 175.394531 257.191406 175.394531 256.949219 C 175.878906 253.414062 176.21875 249.839844 176.21875 246.144531 C 176.21875 202.4375 140.757812 166.980469 97.039062 166.980469 Z M 97.039062 166.980469 " fill-opacity="1" fill-rule="nonzero"/><path fill="#222831" d="M 353.046875 300.808594 C 354.070312 299.625 355.3125 298.496094 356.253906 297.257812 C 367.917969 283.460938 375 265.652344 375 246.148438 C 375 202.441406 339.542969 166.972656 295.828125 166.972656 C 275.800781 166.972656 257.574219 174.464844 243.621094 186.734375 C 243.621094 186.246094 243.542969 185.835938 243.542969 185.332031 C 243.542969 143.375 275.527344 101.390625 339.519531 59.421875 L 330.230469 45 C 239.410156 101.417969 194.003906 163.339844 194.003906 230.765625 C 194.003906 261.71875 202.425781 285.976562 219.292969 303.5 C 236.136719 321.054688 257.46875 329.824219 283.265625 329.824219 C 309.058594 329.824219 329.882812 322.769531 345.703125 308.65625 C 347.941406 306.6875 349.675781 304.472656 351.59375 302.363281 C 352.097656 301.859375 352.550781 301.335938 353.046875 300.808594 Z M 353.046875 300.808594 " fill-opacity="1" fill-rule="nonzero"/></svg>